# xmcd
#
# Track frame offsets:
#	150
#	21657
#	38932
#	55617
#	71317
#	90102
#	105380
#	126852
#	141507
#	154110
#	186427
#	198950
#
# Disc length: 2929
#
# Revision: 5
# Processed by: cddbd v1.5.1PL0 Copyright (c) Steve Scherf et al.
# Submitted via: ExactAudioCopy v0.90b4
# Normalized: r4:DSETVAR1
#
DISCID=a00b6f0c
DTITLE=Various Artist - Love Serenade
DYEAR=1996
DGENRE=Soundtrack
TTITLE0=Barry White - Never never gonna give you up
TTITLE1=Van McCoy - The hustle
TTITLE2=Glen Campbell - Wichita Lineman
TTITLE3=Dionne Warwick - What the world needs now is love
TTITLE4=Barry White - I'm gonna love you just a little more baby
TTITLE5=Gwen McRae - Rockin' chair
TTITLE6=Billy Paul - Me and Mrs Jones
TTITLE7=George McCrae - Rock your baby
TTITLE8=Glen Campbell - It's a sin when you love somebody
TTITLE9=Barry White - Love Serenade
TTITLE10=Alvin Stardust - My Coo Ca Choo
TTITLE11=Les Crane - Desiderata
EXTD=
EXTT0=
EXTT1=
EXTT2=
EXTT3=
EXTT4=
EXTT5=
EXTT6=
EXTT7=
EXTT8=
EXTT9=
EXTT10=
EXTT11=
PLAYORDER=
